<?xml version="1.0" encoding="utf-8"?>
<!-- Generator: Adobe Illustrator 19.2.0, SVG Export Plug-In . SVG Version: 6.00 Build 0)  -->
<svg version="1.1" id="Layer_1" xmlns="http://www.w3.org/2000/svg" xmlns:xlink="http://www.w3.org/1999/xlink" x="0px" y="0px"
	 viewBox="0 0 350.8 80.1" style="enable-background:new 0 0 350.8 80.1;" xml:space="preserve">
<style type="text/css">
	.st0{fill:#252753;}
</style>
<g>
	<g>
		<path class="st0" d="M346.4,20.8c-8-15-25.1-23-41.8-20.3c-16.9,2.7-31.4,15.3-35.2,32.1c-4.3,18.7,6.3,37.5,23.8,44.7
			c16,6.2,34.7,1.5,46.4-10.8C351.3,54.4,354.3,35.8,346.4,20.8z M339.3,59.7c-8.5,14.6-25.9,19.5-41.3,13.5
			c-13.8-5.6-23-19.5-23-34.3c0.1-14.3,8.8-28.4,22.7-32.9c14-4.6,30,1,38.9,12.7C345.6,30.4,346.8,46.8,339.3,59.7z"/>
		<path class="st0" d="M306,12.4c-11.8,1.4-21.9,9.8-24.6,21.4c-3.2,13.3,4.3,26.7,16.8,31.9c0.1,0.1,0.3,0.1,0.4,0.1
			c10.8,4,23.6,2,32-6.3c8.5-8.5,10.7-21.8,5.1-32.4C329.9,16.6,317.8,11,306,12.4z M330.7,52.7C325,63.1,312.6,68.3,301.4,64
			c-9.6-4-16-13.3-16.1-23.8c-0.1-10.4,6.4-20.4,16.2-24.2c9.8-3.7,20.9,0,27.1,8.2C334.8,32.4,335.7,43.7,330.7,52.7z"/>
		<path class="st0" d="M305.6,23.8c-6.9,1.1-12.3,6.9-12.8,13.9c-0.6,7.8,5,14.1,11.7,17.2c0.3,0.1,0.5,0.3,0.7,0.3
			c0.1,0.1,0.2,0.1,0.3,0.1c6.4,2.2,13.5,0.8,17.8-4.7c4.3-5.5,4.1-13.3,0-18.8C319.3,26.5,312.3,22.7,305.6,23.8z M320.8,46
			c-3.5,6.2-11.1,9.1-17.8,6.6c-6.9-2.9-7.8-12.7-4.5-18.5c3.4-6.1,11.2-9.3,17.8-6.6C323.3,30.3,324,40.3,320.8,46z"/>
	</g>
	<g>
		<path class="st0" d="M185.3,32.9c-1.7,0-3-0.5-4-1.5c-1-1-1.5-2.4-1.5-4.2c0-0.7,0.1-1.4,0.2-2.3c0.1-0.9,0.3-1.6,0.5-2.2h2.4
			c-0.3,1.4-0.4,2.8-0.4,4.2c0,1.1,0.3,1.9,0.8,2.6c0.5,0.7,1.2,1,2,1h10.6v-12h2.5v14.3H185.3z M186.5,18.6c-0.5,0-0.9-0.1-1.2-0.4
			s-0.5-0.7-0.5-1.4c0-0.6,0.2-1.1,0.5-1.4s0.7-0.4,1.2-0.4c0.5,0,0.9,0.2,1.2,0.5c0.3,0.3,0.4,0.7,0.4,1.3c0,0.6-0.1,1-0.4,1.3
			C187.4,18.4,187,18.6,186.5,18.6z M191.6,18.6c-0.5,0-0.9-0.2-1.2-0.5c-0.3-0.3-0.4-0.7-0.4-1.3c0-0.6,0.1-1,0.4-1.3
			c0.3-0.3,0.7-0.5,1.2-0.5c0.5,0,0.9,0.2,1.2,0.5s0.4,0.8,0.4,1.3c0,0.5-0.1,1-0.4,1.3C192.6,18.4,192.1,18.6,191.6,18.6z"/>
		<path class="st0" d="M203.8,10.5h2.6v22.4h-2.6V10.5z"/>
		<path class="st0" d="M223.4,33.6c0,2-0.6,3.6-1.8,4.7c-1.2,1.1-2.9,1.7-5,1.7c-2,0-3.8-0.5-5.3-1.5l1.2-2c0.6,0.3,1.3,0.6,2,0.8
			s1.4,0.3,2.2,0.3c1.3,0,2.4-0.4,3.1-1.1c0.8-0.7,1.1-1.7,1.1-2.9v-0.8H218c-2.1,0-3.7-0.6-4.9-1.7c-1.1-1.2-1.7-2.8-1.7-5
			c0-2.3,0.7-4.2,2.2-5.5s3.4-2.1,5.9-2.1h3.9v12h2.4c0.1,0,0.1,0,0.1,0.1v2c0,0.1,0,0.1-0.1,0.1h-2.4V33.6z M220.9,30.6v-9.7h-1.3
			c-1.7,0-3.1,0.5-4.1,1.4s-1.5,2.2-1.5,3.9c0,1.5,0.3,2.7,1,3.4c0.7,0.7,1.7,1.1,3,1.1H220.9z"/>
		<path class="st0" d="M225.5,32.9c-0.1,0-0.1,0-0.1-0.1v-2c0-0.1,0-0.1,0.1-0.1h3.6V19.5h2.5v5.5c0.9-2.2,2.1-3.9,3.5-5
			c1.4-1.1,3-1.7,4.7-1.7c2.2,0,3.9,0.6,5,1.8c1.1,1.2,1.7,3.1,1.7,5.7v7.1H225.5z M244,30.6v-4.7c0-1.8-0.4-3.1-1.2-4
			c-0.8-0.9-2-1.3-3.6-1.3c-3,0-5.6,2.5-7.6,7.5v2.4H244z"/>
		<path class="st0" d="M250.1,9.5l1.4-0.2c-0.7-0.5-1-1.1-1-1.9c0-0.8,0.3-1.5,0.8-2s1.3-0.7,2.2-0.7c0.8,0,1.4,0.1,1.9,0.4
			l-0.4,1.3c-0.4-0.2-0.9-0.4-1.5-0.4c-0.4,0-0.8,0.1-1.1,0.4c-0.3,0.2-0.4,0.6-0.4,1.1c0,0.3,0.1,0.6,0.3,0.9
			c0.2,0.2,0.4,0.4,0.6,0.5c0.2,0,0.7-0.1,1.4-0.2c0.7-0.1,1.3-0.2,1.5-0.2v1.4c-0.2,0-0.5,0-1,0.1s-1.5,0.2-3,0.4l-1.7,0.3V9.5z
			 M251.7,12.3h2.6v20.6h-2.6V12.3z"/>
		<path class="st0" d="M0,64.7h2.7V45.9h4.4v13c1.8-3.6,4.5-5.5,8-5.5c2.4,0,4.2,0.6,5.5,1.9s1.8,3.2,1.8,5.9v3.5h3.8
			c0.1,0,0.1,0,0.1,0.1v3.3c0,0.1,0,0.1-0.1,0.1H0V64.7z M18,64.7v-3.6c0-1.4-0.3-2.5-1-3.2s-1.7-1-3-1c-2.6,0-4.9,1.8-6.9,5.5v2.3
			H18z"/>
		<path class="st0" d="M26,68.3c-0.1,0-0.1,0-0.1-0.1v-3.3c0-0.1,0-0.1,0.1-0.1h3.7V56H34v8.8h2.5c1,0,1.7-0.3,2.2-0.8
			c0.5-0.5,0.7-1.4,0.7-2.6V56h4.4v5.7c0,0.5,0,0.9-0.1,1.3c0.5,0.6,1,1.1,1.4,1.4c0.5,0.3,1.1,0.4,1.9,0.4h1.8V53.7h4.4v14.6h-6.1
			c-1.7,0-3.2-0.7-4.6-2.2c-1.1,1.5-2.7,2.2-4.9,2.2H26z"/>
		<path class="st0" d="M63.9,75.3c-1.3,0-2.5-0.1-3.5-0.3c-1-0.2-1.9-0.6-2.8-1.1l1.7-3.2c0.8,0.4,1.5,0.7,2.3,0.9s1.4,0.3,2.2,0.3
			c1.1,0,2-0.3,2.6-0.9s0.9-1.4,0.9-2.5v-0.1h-2.9c-2.1,0-3.7-0.6-4.9-1.8c-1.1-1.2-1.7-2.9-1.7-5.1c0-1.6,0.4-2.9,1.2-4.1
			c0.8-1.2,1.9-2.1,3.3-2.7s3.1-0.9,4.9-0.9h4.5v14.7c0,2.2-0.7,4-2,5.2S66.4,75.3,63.9,75.3z M67.3,64.7v-7.5h-0.9
			c-1.3,0-2.2,0.4-2.9,1.1s-1.1,1.7-1.1,3c0,1.2,0.2,2,0.7,2.6c0.5,0.6,1.2,0.8,2.2,0.8H67.3z"/>
		<path class="st0" d="M75.5,64.7h5.3L77,49.8h4.6l3.5,14.9h0.2c1,0,1.7-0.3,2.2-0.8c0.5-0.5,0.7-1.4,0.7-2.6V45.9h4.4v15.8
			c0,2-0.6,3.6-1.7,4.8c-1.1,1.2-2.6,1.8-4.6,1.8H75.5V64.7z M75.8,46.6l1.7-0.3c-0.4-0.2-0.7-0.5-1-0.8c-0.2-0.3-0.4-0.7-0.4-1.2
			c0-0.8,0.3-1.5,0.9-2c0.6-0.5,1.4-0.7,2.4-0.7c1,0,1.8,0.2,2.4,0.5l-0.6,1.5c-0.5-0.2-1-0.4-1.6-0.4c-0.4,0-0.8,0.1-1,0.4
			c-0.3,0.2-0.4,0.6-0.4,1c0,0.3,0.1,0.6,0.3,0.8c0.2,0.2,0.4,0.4,0.6,0.5l0.5-0.1c1-0.2,1.8-0.3,2.4-0.3v1.7
			c-0.7,0-1.9,0.2-3.5,0.4c-1.6,0.2-2.5,0.3-2.7,0.4V46.6z"/>
		<path class="st0" d="M98.2,45.9h4.4v22.4h-4.4V45.9z"/>
		<path class="st0" d="M123.5,75.3c-1.5,0-2.8-0.4-4-1.1c-1.2-0.7-2.1-1.7-2.8-3s-1-2.7-1-4.2c0-1.1,0.1-2.2,0.4-3.4
			s0.6-2.2,1.1-3.1h3.9c-0.3,1.1-0.6,2.2-0.7,3.3c-0.2,1.2-0.3,2.2-0.3,3.2c0,1.5,0.4,2.6,1.2,3.5c0.8,0.8,2,1.2,3.5,1.2h5
			c1.9,0,3.3-0.3,4.1-0.8c0.9-0.5,1.3-1.4,1.3-2.6v-0.1h-2.1H133c-1.4,0-2.7-0.3-3.7-0.9c-1.1-0.6-1.9-1.4-2.5-2.5s-0.9-2.4-0.9-3.9
			s0.3-2.8,1-3.9c0.7-1.1,1.6-1.9,2.9-2.5c1.3-0.6,2.9-0.9,4.7-0.9h5.2v13.8c0,2.6-0.7,4.6-2,5.9c-1.3,1.3-3.4,1.9-6.3,1.9H123.5z
			 M132,51.1c-0.6,0-1.1-0.2-1.4-0.6c-0.4-0.4-0.5-0.9-0.5-1.5c0-0.7,0.2-1.2,0.5-1.6c0.3-0.4,0.8-0.6,1.4-0.6
			c0.6,0,1.1,0.2,1.4,0.6s0.5,0.9,0.5,1.6c0,0.7-0.2,1.2-0.5,1.6C133.1,51,132.6,51.1,132,51.1z M135.2,64.7v-7.5h-0.8
			c-2.8,0-4.2,1.3-4.2,3.9c0,1.2,0.4,2.1,1.1,2.7s1.7,0.9,3,0.9H135.2z M137,51.1c-0.6,0-1.1-0.2-1.4-0.6c-0.4-0.4-0.5-0.9-0.5-1.5
			c0-0.7,0.2-1.2,0.5-1.6c0.3-0.4,0.8-0.6,1.4-0.6s1.1,0.2,1.4,0.6s0.5,0.9,0.5,1.6c0,0.7-0.2,1.2-0.5,1.5
			C138.1,50.9,137.6,51.1,137,51.1z"/>
		<path class="st0" d="M156.4,64.7c0.1,0,0.1,0,0.1,0.1v3.3c0,0.1,0,0.1-0.1,0.1h-3.8v0.5c0,2-0.6,3.6-1.7,4.8
			c-1.1,1.2-2.6,1.8-4.5,1.8c-1,0-1.9-0.1-2.8-0.4c-0.8-0.2-1.7-0.7-2.7-1.3l1.8-2.9c0.5,0.3,1,0.6,1.4,0.7c0.4,0.1,0.9,0.2,1.4,0.2
			c0.8,0,1.4-0.3,1.9-0.9c0.5-0.6,0.7-1.4,0.7-2.3V53.7h4.4v11.1H156.4z"/>
		<path class="st0" d="M187.1,64.7c0.1,0,0.2,0,0.2,0.1v3.3c0,0.1-0.1,0.1-0.2,0.1h-10c-1.7,0-3.2-0.7-4.6-2.2
			c-1.1,1.5-2.7,2.2-4.9,2.2h-11.6c-0.1,0-0.1,0-0.1-0.1v-3.3c0-0.1,0-0.1,0.1-0.1h3.7V56h4.4v8.8h2.5c1,0,1.7-0.3,2.2-0.8
			c0.5-0.5,0.7-1.4,0.7-2.6V56h4.4v5.7c0,0.5,0,0.9-0.1,1.3c0.5,0.6,1,1.1,1.4,1.4c0.5,0.3,1.1,0.4,1.9,0.4h1.8V53.7h4.4v11.1H187.1
			z M169.3,51.1c-0.6,0-1.1-0.2-1.4-0.6c-0.4-0.4-0.5-0.9-0.5-1.5c0-0.7,0.2-1.2,0.5-1.6s0.8-0.6,1.4-0.6s1.1,0.2,1.4,0.6
			s0.5,0.9,0.5,1.6c0,0.7-0.2,1.2-0.5,1.5C170.4,50.9,169.9,51.1,169.3,51.1z M171.9,46.4c-0.5,0-0.9-0.1-1.2-0.4
			c-0.3-0.3-0.5-0.7-0.5-1.4c0-0.6,0.2-1.1,0.5-1.4c0.3-0.3,0.7-0.4,1.2-0.4c0.5,0,0.9,0.2,1.2,0.5c0.3,0.3,0.5,0.8,0.5,1.3
			c0,0.5-0.2,1-0.5,1.3C172.8,46.2,172.4,46.4,171.9,46.4z M174.4,51.1c-0.6,0-1.1-0.2-1.5-0.6c-0.4-0.4-0.5-0.9-0.5-1.5
			c0-0.7,0.2-1.2,0.5-1.6c0.3-0.4,0.8-0.6,1.5-0.6c0.6,0,1.1,0.2,1.4,0.6c0.3,0.4,0.5,0.9,0.5,1.6c0,0.7-0.2,1.2-0.5,1.5
			C175.4,50.9,174.9,51.1,174.4,51.1z"/>
		<path class="st0" d="M186.8,68.3c-0.1,0-0.1,0-0.1-0.1v-3.3c0-0.1,0-0.1,0.1-0.1h3.7V45.9h4.4v22.4H186.8z"/>
		<path class="st0" d="M200.8,45.9h4.4v22.4h-4.4V45.9z"/>
		<path class="st0" d="M239,64.7c0.1,0,0.1,0,0.1,0.1v3.3c0,0.1,0,0.1-0.1,0.1h-3.8c-0.4,4.7-3.2,7.1-8.7,7.1h-1.3
			c-1.6,0-3.1-0.3-4.3-1c-1.2-0.7-2.1-1.7-2.8-2.9c-0.6-1.3-1-2.7-1-4.3c0-1.1,0.1-2.2,0.4-3.4s0.6-2.2,1.1-3.1h3.9
			c-0.3,1.1-0.6,2.2-0.7,3.3c-0.2,1.2-0.3,2.2-0.3,3.2c0,1.4,0.4,2.6,1.1,3.4s1.7,1.3,2.8,1.3h0.9c1.5,0,2.6-0.4,3.3-1.2
			s1.1-2,1.1-3.5V53.7h4.4v11.1H239z M226.1,53.7c-0.6,0-1.1-0.2-1.5-0.6c-0.4-0.4-0.5-0.9-0.5-1.5c0-0.7,0.2-1.2,0.5-1.6
			c0.3-0.4,0.8-0.6,1.5-0.6c0.6,0,1.1,0.2,1.4,0.6c0.4,0.4,0.5,0.9,0.5,1.6c0,0.7-0.2,1.2-0.5,1.5C227.2,53.5,226.7,53.7,226.1,53.7
			z"/>
		<path class="st0" d="M242,64.7c-0.5-1.2-0.8-2.6-0.8-4.1c0-0.9,0.1-1.8,0.4-2.8c0.3-1,0.6-1.8,1.1-2.5c1-0.5,2-1,3-1.3
			c1.1-0.3,2-0.4,2.8-0.4c1.3,0,2.6,0.3,3.7,0.9c1.1,0.6,2,1.4,2.6,2.4s0.9,2.3,0.9,3.7c0,1.5-0.3,2.8-1,4s-1.7,2-2.9,2.7
			c-1.2,0.6-2.6,1-4.1,1h-9c-0.1,0-0.1,0-0.1-0.1v-3.3c0-0.1,0-0.1,0.1-0.1H242z M245.3,61.3c0,1,0.2,2.1,0.7,3.4h1.1
			c1.2,0,2.2-0.4,3-1.2c0.8-0.8,1.2-1.8,1.2-2.9c0-1-0.3-1.9-0.8-2.5s-1.2-0.9-2-0.9c-0.9,0-1.8,0.3-2.7,0.8
			C245.4,59.1,245.3,60.2,245.3,61.3z"/>
	</g>
</g>
</svg>
