<?xml version="1.0" encoding="utf-8"?>
<!-- Generator: Adobe Illustrator 19.2.0, SVG Export Plug-In . SVG Version: 6.00 Build 0)  -->
<svg version="1.1" id="Layer_1" xmlns="http://www.w3.org/2000/svg" xmlns:xlink="http://www.w3.org/1999/xlink" x="0px" y="0px"
	 viewBox="0 0 368.8 80.1" style="enable-background:new 0 0 368.8 80.1;" xml:space="preserve">
<style type="text/css">
	.st0{fill:#252753;}
</style>
<g>
	<g>
		<path class="st0" d="M77.9,20.8c-8-15-25.1-23-41.8-20.3C19.3,3.3,4.8,15.8,1,32.7c-4.3,18.7,6.3,37.5,23.8,44.7
			c16,6.2,34.7,1.5,46.4-10.8C82.8,54.4,85.8,35.8,77.9,20.8z M70.8,59.7c-8.5,14.6-25.9,19.5-41.3,13.5c-13.8-5.6-23-19.5-23-34.3
			c0.1-14.3,8.8-28.4,22.7-32.9c14-4.6,30,1,38.9,12.7C77.2,30.4,78.3,46.8,70.8,59.7z"/>
		<path class="st0" d="M37.5,12.4c-11.8,1.4-21.9,9.8-24.6,21.4c-3.2,13.3,4.3,26.7,16.8,31.9c0.1,0.1,0.3,0.1,0.4,0.1
			c10.8,4,23.6,2,32-6.3c8.5-8.5,10.7-21.8,5-32.4C61.5,16.6,49.3,11,37.5,12.4z M62.3,52.7C56.6,63.1,44.2,68.3,33,64
			c-9.6-4-16-13.3-16.1-23.8c-0.1-10.4,6.4-20.4,16.2-24.2c9.8-3.7,20.9,0,27.1,8.2C66.4,32.4,67.3,43.7,62.3,52.7z"/>
		<path class="st0" d="M37.1,23.8c-6.9,1.1-12.3,6.9-12.8,13.9c-0.6,7.8,5,14.1,11.7,17.2c0.3,0.1,0.5,0.3,0.7,0.3
			c0.1,0.1,0.2,0.1,0.3,0.1c6.4,2.2,13.5,0.8,17.8-4.7c4.3-5.5,4.1-13.3,0-18.8C50.9,26.5,43.9,22.7,37.1,23.8z M52.4,46
			c-3.5,6.2-11.1,9.1-17.8,6.6c-6.9-2.9-7.8-12.7-4.5-18.5c3.4-6.1,11.2-9.3,17.8-6.6C54.8,30.3,55.6,40.3,52.4,46z"/>
	</g>
	<g>
		<path class="st0" d="M102.8,29.2c0.6-1.4,1.4-3.1,2.4-5.1l7.3-14.3h3.1l-12,22.6h-3L98.2,9.8h2.8l1.4,14.3
			c0.2,1.8,0.3,3.3,0.3,4.5L102.8,29.2L102.8,29.2z"/>
		<path class="st0" d="M134.6,18.3c0,2.8-0.5,5.3-1.4,7.5s-2.2,3.9-3.9,5.1c-1.7,1.2-3.6,1.8-5.8,1.8c-2.6,0-4.7-0.8-6.2-2.3
			c-1.5-1.5-2.2-3.7-2.2-6.5c0-2.7,0.5-5.2,1.5-7.4c1-2.3,2.3-4,4.1-5.2s3.7-1.8,5.9-1.8c2.5,0,4.5,0.8,6,2.4
			C133.9,13.4,134.6,15.6,134.6,18.3z M126.3,11.9c-1.6,0-3,0.5-4.3,1.5c-1.3,1-2.2,2.5-2.9,4.3c-0.7,1.8-1,3.9-1,6.1
			c0,2,0.5,3.6,1.5,4.7s2.3,1.7,4,1.7c1.5,0,2.9-0.5,4.1-1.5c1.2-1,2.2-2.4,2.9-4.3c0.7-1.9,1.1-3.9,1.1-6.2c0-2-0.5-3.5-1.4-4.7
			S127.9,11.9,126.3,11.9z"/>
		<path class="st0" d="M142.9,32.4H135l0.3-1.5l2.7-0.6l3.8-18.2l-2.4-0.6l0.3-1.6h7.9l-0.3,1.6l-2.7,0.6l-3.9,18.2l2.4,0.6
			L142.9,32.4z"/>
		<path class="st0" d="M159.7,12c-1.8,0-3.4,0.5-4.8,1.5c-1.4,1-2.5,2.5-3.3,4.4s-1.2,3.9-1.2,6.1c0,1.9,0.5,3.4,1.5,4.6
			s2.3,1.7,4.1,1.7c1.5,0,3.2-0.3,5-0.9v2.5c-1.7,0.6-3.5,0.9-5.5,0.9c-2.5,0-4.5-0.8-5.9-2.3c-1.4-1.5-2.1-3.6-2.1-6.3
			c0-2.6,0.5-5.1,1.6-7.4c1.1-2.3,2.5-4.1,4.4-5.3c1.8-1.2,3.9-1.8,6.2-1.8c2.1,0,4,0.4,5.5,1.3l-1.1,2.3
			C162.7,12.3,161.2,12,159.7,12z"/>
		<path class="st0" d="M176.6,32.4h-11.5l4.8-22.6h11.5l-0.5,2.5h-8.6l-1.5,7h8.1l-0.5,2.5h-8.1l-1.7,8.1h8.7L176.6,32.4z"/>
		<path class="st0" d="M194.2,25.8c0,2.2-0.7,3.8-2.2,5c-1.4,1.2-3.5,1.8-6.1,1.8c-2.1,0-3.9-0.3-5.3-1v-2.8
			c1.7,0.9,3.5,1.3,5.3,1.3c1.6,0,2.9-0.4,3.8-1.1c1-0.7,1.4-1.8,1.4-3.1c0-0.8-0.3-1.5-0.8-2.1s-1.5-1.3-3-2.2
			c-1.6-0.9-2.6-1.8-3.2-2.7c-0.6-0.9-0.9-1.9-0.9-3.1c0-1.3,0.3-2.4,0.9-3.4c0.6-1,1.5-1.8,2.7-2.3c1.1-0.5,2.4-0.8,3.8-0.8
			c2,0,3.9,0.4,5.7,1.3l-1.1,2.4c-0.7-0.4-1.4-0.7-2.2-0.9c-0.8-0.2-1.6-0.3-2.4-0.3c-1.3,0-2.4,0.3-3.2,1c-0.8,0.7-1.2,1.6-1.2,2.8
			c0,0.8,0.2,1.5,0.6,2c0.4,0.5,1.3,1.2,2.6,2c1.5,0.9,2.5,1.6,3,2.1c0.5,0.5,0.9,1.1,1.2,1.7C194.1,24.3,194.2,25,194.2,25.8z"/>
		<path class="st0" d="M208.4,32.4h-2.8l4.8-22.6h11.5l-0.5,2.5h-8.7l-1.7,8h8.1l-0.5,2.5h-8.1L208.4,32.4z"/>
		<path class="st0" d="M225.5,23l-2,9.3h-2.8l4.8-22.6h5c4.6,0,7,1.9,7,5.7c0,3.5-1.9,5.8-5.6,6.9l3.7,10h-3.1l-3.2-9.3H225.5z
			 M226,20.6h2.5c1.9,0,3.4-0.4,4.5-1.3c1-0.9,1.6-2.1,1.6-3.6c0-1.2-0.3-2.1-1-2.6s-1.8-0.8-3.3-0.8h-2.4L226,20.6z"/>
		<path class="st0" d="M259.4,18.3c0,2.8-0.5,5.3-1.4,7.5s-2.2,3.9-3.9,5.1c-1.7,1.2-3.6,1.8-5.8,1.8c-2.6,0-4.7-0.8-6.2-2.3
			c-1.5-1.5-2.2-3.7-2.2-6.5c0-2.7,0.5-5.2,1.5-7.4c1-2.3,2.3-4,4.1-5.2s3.7-1.8,5.9-1.8c2.5,0,4.5,0.8,6,2.4
			C258.6,13.4,259.4,15.6,259.4,18.3z M251,11.9c-1.6,0-3,0.5-4.3,1.5c-1.3,1-2.2,2.5-2.9,4.3c-0.7,1.8-1,3.9-1,6.1
			c0,2,0.5,3.6,1.5,4.7s2.3,1.7,4,1.7c1.5,0,2.9-0.5,4.1-1.5c1.2-1,2.2-2.4,2.9-4.3c0.7-1.9,1.1-3.9,1.1-6.2c0-2-0.5-3.5-1.4-4.7
			S252.7,11.9,251,11.9z"/>
		<path class="st0" d="M272.1,28.2l10-18.5h4.3l-4.7,22.6h-2.8l2.8-13.4c0.6-2.9,1.1-5.1,1.5-6.4h-0.1l-10.9,19.8h-2.2l-2.4-19.8
			h-0.1c-0.2,1.6-0.5,3.7-1,6.2l-2.9,13.6H261l4.8-22.6h4l2.2,18.5H272.1z"/>
		<path class="st0" d="M106.9,70.4h-4.8V51.7h-6.1v-4H113v4h-6.1V70.4z"/>
		<path class="st0" d="M135,70.4h-4.8v-9.8h-8.9v9.8h-4.8V47.8h4.8v8.9h8.9v-8.9h4.8V70.4z"/>
		<path class="st0" d="M152.4,70.4h-13V47.8h13v3.9h-8.2v5h7.7v3.9h-7.7v5.8h8.2V70.4z"/>
		<path class="st0" d="M174.9,70.4l-5.4-17.7h-0.1c0.2,3.6,0.3,6,0.3,7.2v10.5h-4.3V47.8h6.5l5.3,17.3h0.1l5.7-17.3h6.5v22.6h-4.5
			V59.7c0-0.5,0-1.1,0-1.7s0.1-2.4,0.2-5.3h-0.1l-5.8,17.7H174.9z"/>
		<path class="st0" d="M203.7,70.4h-10.3v-2.7l2.8-1.3V51.7l-2.8-1.3v-2.7h10.3v2.7l-2.8,1.3v14.6l2.8,1.3V70.4z"/>
		<path class="st0" d="M226.3,58.8c0,3.7-1.1,6.6-3.2,8.5c-2.1,2-5.2,3-9.2,3h-6.4V47.8h7.1c3.7,0,6.6,1,8.6,2.9
			C225.3,52.6,226.3,55.3,226.3,58.8z M221.3,59c0-4.9-2.1-7.3-6.4-7.3h-2.5v14.7h2.1C219,66.4,221.3,63.9,221.3,59z"/>
		<path class="st0" d="M249.1,58.8c0,3.7-1.1,6.6-3.2,8.5c-2.1,2-5.2,3-9.2,3h-6.4V47.8h7.1c3.7,0,6.6,1,8.6,2.9
			C248.1,52.6,249.1,55.3,249.1,58.8z M244.1,59c0-4.9-2.1-7.3-6.4-7.3h-2.5v14.7h2.1C241.8,66.4,244.1,63.9,244.1,59z"/>
		<path class="st0" d="M253.1,70.4V47.8h4.8v18.6h9.2v4H253.1z"/>
		<path class="st0" d="M283.4,70.4h-13V47.8h13v3.9h-8.2v5h7.7v3.9h-7.7v5.8h8.2V70.4z"/>
		<path class="st0" d="M309.3,70.4h-13V47.8h13v3.9h-8.2v5h7.7v3.9h-7.7v5.8h8.2V70.4z"/>
		<path class="st0" d="M328.5,70.4l-1.6-5.4h-8.2l-1.6,5.4h-5.2l8-22.7h5.9l8,22.7H328.5z M325.7,61c-1.5-4.9-2.4-7.6-2.6-8.3
			c-0.2-0.6-0.3-1.1-0.4-1.5c-0.3,1.3-1.3,4.6-2.9,9.8H325.7z"/>
		<path class="st0" d="M349.9,64.1c0,2-0.7,3.6-2.2,4.8c-1.5,1.2-3.5,1.8-6.1,1.8c-2.4,0-4.5-0.5-6.4-1.4v-4.5
			c1.5,0.7,2.8,1.2,3.9,1.4c1.1,0.3,2,0.4,2.9,0.4c1.1,0,1.9-0.2,2.4-0.6c0.6-0.4,0.8-1,0.8-1.8c0-0.4-0.1-0.8-0.4-1.2
			c-0.2-0.3-0.6-0.7-1.1-1c-0.5-0.3-1.5-0.8-2.9-1.5c-1.4-0.6-2.4-1.3-3.1-1.9s-1.2-1.3-1.7-2.1c-0.4-0.8-0.6-1.7-0.6-2.8
			c0-2,0.7-3.6,2-4.7c1.4-1.1,3.2-1.7,5.6-1.7c1.2,0,2.3,0.1,3.4,0.4s2.2,0.7,3.3,1.2l-1.5,3.7c-1.2-0.5-2.2-0.8-3-1
			s-1.6-0.3-2.3-0.3c-0.9,0-1.6,0.2-2.1,0.6s-0.7,1-0.7,1.7c0,0.4,0.1,0.8,0.3,1.1c0.2,0.3,0.5,0.6,0.9,0.9c0.4,0.3,1.4,0.8,3,1.6
			c2.1,1,3.6,2,4.3,3S349.9,62.6,349.9,64.1z"/>
		<path class="st0" d="M362.7,70.4h-4.8V51.7h-6.1v-4h17.1v4h-6.1V70.4z"/>
	</g>
</g>
</svg>
